<svg width="16" height="17" viewBox="0 0 16 17" fill="none" xmlns="http://www.w3.org/2000/svg">
<path d="M12 7.71325C11.8232 7.71325 11.6536 7.78349 11.5286 7.90851C11.4036 8.03354 11.3333 8.20311 11.3333 8.37992V13.1666C11.3333 13.3434 11.2631 13.513 11.1381 13.638C11.013 13.763 10.8435 13.8333 10.6666 13.8333H3.33331C3.1565 13.8333 2.98693 13.763 2.86191 13.638C2.73688 13.513 2.66665 13.3434 2.66665 13.1666V5.83325C2.66665 5.65644 2.73688 5.48687 2.86191 5.36185C2.98693 5.23682 3.1565 5.16659 3.33331 5.16659H8.11998C8.29679 5.16659 8.46636 5.09635 8.59138 4.97132C8.71641 4.8463 8.78665 4.67673 8.78665 4.49992C8.78665 4.32311 8.71641 4.15354 8.59138 4.02851C8.46636 3.90349 8.29679 3.83325 8.11998 3.83325H3.33331C2.80288 3.83325 2.29417 4.04397 1.9191 4.41904C1.54403 4.79411 1.33331 5.30282 1.33331 5.83325V13.1666C1.33331 13.697 1.54403 14.2057 1.9191 14.5808C2.29417 14.9559 2.80288 15.1666 3.33331 15.1666H10.6666C11.1971 15.1666 11.7058 14.9559 12.0809 14.5808C12.4559 14.2057 12.6666 13.697 12.6666 13.1666V8.37992C12.6666 8.20311 12.5964 8.03354 12.4714 7.90851C12.3464 7.78349 12.1768 7.71325 12 7.71325ZM14.6133 2.24659C14.5457 2.08369 14.4162 1.95424 14.2533 1.88659C14.1732 1.85242 14.0871 1.83431 14 1.83325H9.99998C9.82317 1.83325 9.6536 1.90349 9.52858 2.02851C9.40355 2.15354 9.33331 2.32311 9.33331 2.49992C9.33331 2.67673 9.40355 2.8463 9.52858 2.97132C9.6536 3.09635 9.82317 3.16659 9.99998 3.16659H12.3933L5.52665 10.0266C5.46416 10.0886 5.41456 10.1623 5.38072 10.2435C5.34687 10.3248 5.32945 10.4119 5.32945 10.4999C5.32945 10.5879 5.34687 10.6751 5.38072 10.7563C5.41456 10.8375 5.46416 10.9113 5.52665 10.9733C5.58862 11.0357 5.66236 11.0853 5.7436 11.1192C5.82483 11.153 5.91197 11.1705 5.99998 11.1705C6.08799 11.1705 6.17512 11.153 6.25636 11.1192C6.3376 11.0853 6.41134 11.0357 6.47331 10.9733L13.3333 4.10659V6.49992C13.3333 6.67673 13.4036 6.8463 13.5286 6.97132C13.6536 7.09635 13.8232 7.16659 14 7.16659C14.1768 7.16659 14.3464 7.09635 14.4714 6.97132C14.5964 6.8463 14.6666 6.67673 14.6666 6.49992V2.49992C14.6656 2.4128 14.6475 2.32673 14.6133 2.24659Z" fill="#677489"/>
</svg>
