<svg width="21" height="20" viewBox="0 0 21 20" fill="none" xmlns="http://www.w3.org/2000/svg">
<path d="M7.87858 17.9757C9.57926 18.5449 11.419 18.5451 13.1198 17.9762C12.9038 18.0456 12.6724 17.9267 12.603 17.7107C12.5894 17.6684 12.5828 17.6242 12.5833 17.5798C12.5833 17.2986 12.5937 16.4027 12.5937 15.2881C12.6389 14.717 12.4337 14.1543 12.0312 13.7465C13.8854 13.5381 15.8333 12.8298 15.8333 9.63188C15.847 8.80333 15.5411 8.00133 14.9792 7.3923C15.2339 6.67248 15.2041 5.88253 14.8958 5.18397C14.8958 5.18397 14.1979 4.9548 12.6042 6.03813C11.2406 5.6631 9.80107 5.6631 8.4375 6.03813C6.84372 4.96523 6.14583 5.18397 6.14583 5.18397C5.83751 5.88253 5.80771 6.67248 6.0625 7.3923C5.50222 8.00236 5.19661 8.80367 5.20833 9.63188C5.20833 12.8194 7.14583 13.5381 9 13.7465C8.69359 14.0413 8.50478 14.4374 8.46873 14.8611C7.61055 15.342 6.525 15.0361 6.04409 14.178C6.04328 14.1765 6.04246 14.175 6.04166 14.1736C5.77946 13.6969 5.30123 13.3781 4.76038 13.3194C4.06249 13.3298 4.47916 13.7153 4.77081 13.8715C5.14685 14.1887 5.44001 14.5927 5.62499 15.0486C5.79166 15.5173 6.33332 16.4132 8.42706 16.0277C8.42706 16.7257 8.43749 17.3819 8.43749 17.5798C8.43749 17.7957 8.28299 18.0392 7.87858 17.9757Z" fill="white" fill-opacity="0.2"/>
<path d="M10.5 1.73584C5.8976 1.73584 2.16663 5.46681 2.16663 10.0692C2.16663 13.755 4.5622 16.8764 7.87926 17.9757C8.28311 18.0387 8.43748 17.7955 8.43748 17.5798C8.43748 17.3819 8.42705 16.7257 8.42705 16.0277C6.33329 16.4132 5.79161 15.5173 5.62498 15.0486C5.43999 14.5927 5.14682 14.1887 4.77079 13.8715C4.47914 13.7153 4.06248 13.3298 4.76037 13.3194C5.30119 13.3781 5.77945 13.6969 6.04165 14.1736C6.04247 14.175 6.04328 14.1765 6.04409 14.1779C6.525 15.0361 7.61051 15.3419 8.46872 14.861C8.50478 14.4374 8.69358 14.0413 8.99998 13.7465C7.14583 13.5381 5.20832 12.8194 5.20832 9.6319C5.19657 8.80365 5.5022 8.00237 6.06245 7.39232C5.80768 6.67247 5.83748 5.88251 6.14581 5.18396C6.14581 5.18396 6.84369 4.96521 8.43748 6.03815C9.80105 5.66309 11.2406 5.66309 12.6041 6.03815C14.1979 4.95477 14.8958 5.18396 14.8958 5.18396C15.2041 5.88251 15.2339 6.67246 14.9791 7.39232C15.5411 8.00134 15.8469 8.8033 15.8333 9.6319C15.8333 12.8298 13.8854 13.5381 12.0312 13.7465C12.4337 14.1543 12.6389 14.7169 12.5937 15.2881C12.5937 16.4027 12.5833 17.2986 12.5833 17.5798C12.5827 17.6242 12.5893 17.6684 12.6029 17.7107C12.6723 17.9264 12.9031 18.045 13.1188 17.9763C16.4369 16.8776 18.8333 13.7557 18.8333 10.0692C18.8333 5.46681 15.1023 1.73584 10.5 1.73584Z" fill="white"/>
</svg>
