<svg width="20" height="20" viewBox="0 0 20 20" fill="none" xmlns="http://www.w3.org/2000/svg">
<path d="M3.33337 10C3.33337 10.221 3.42117 10.433 3.57745 10.5893C3.73373 10.7455 3.94569 10.8333 4.16671 10.8333H10.4917L8.57504 12.7417C8.49693 12.8191 8.43494 12.9113 8.39263 13.0129C8.35032 13.1144 8.32854 13.2233 8.32854 13.3333C8.32854 13.4433 8.35032 13.5523 8.39263 13.6538C8.43494 13.7554 8.49693 13.8475 8.57504 13.925C8.65251 14.0031 8.74468 14.0651 8.84623 14.1074C8.94778 14.1497 9.0567 14.1715 9.16671 14.1715C9.27672 14.1715 9.38564 14.1497 9.48719 14.1074C9.58874 14.0651 9.6809 14.0031 9.75837 13.925L13.0917 10.5917C13.1676 10.5124 13.227 10.419 13.2667 10.3167C13.3501 10.1138 13.3501 9.88622 13.2667 9.68334C13.227 9.58105 13.1676 9.48759 13.0917 9.40834L9.75837 6.07501C9.68068 5.99731 9.58843 5.93567 9.48692 5.89362C9.3854 5.85157 9.27659 5.82993 9.16671 5.82993C9.05682 5.82993 8.94802 5.85157 8.8465 5.89362C8.74498 5.93567 8.65274 5.99731 8.57504 6.07501C8.49734 6.1527 8.43571 6.24495 8.39366 6.34646C8.35161 6.44798 8.32996 6.55679 8.32996 6.66667C8.32996 6.77655 8.35161 6.88536 8.39366 6.98688C8.43571 7.0884 8.49734 7.18064 8.57504 7.25834L10.4917 9.16667H4.16671C3.94569 9.16667 3.73373 9.25447 3.57745 9.41075C3.42117 9.56703 3.33337 9.77899 3.33337 10ZM14.1667 1.66667H5.83337C5.17033 1.66667 4.53445 1.93006 4.06561 2.3989C3.59677 2.86775 3.33337 3.50363 3.33337 4.16667V6.66667C3.33337 6.88769 3.42117 7.09965 3.57745 7.25593C3.73373 7.41221 3.94569 7.50001 4.16671 7.50001C4.38772 7.50001 4.59968 7.41221 4.75596 7.25593C4.91224 7.09965 5.00004 6.88769 5.00004 6.66667V4.16667C5.00004 3.94566 5.08784 3.7337 5.24412 3.57742C5.4004 3.42114 5.61236 3.33334 5.83337 3.33334H14.1667C14.3877 3.33334 14.5997 3.42114 14.756 3.57742C14.9122 3.7337 15 3.94566 15 4.16667V15.8333C15 16.0544 14.9122 16.2663 14.756 16.4226C14.5997 16.5789 14.3877 16.6667 14.1667 16.6667H5.83337C5.61236 16.6667 5.4004 16.5789 5.24412 16.4226C5.08784 16.2663 5.00004 16.0544 5.00004 15.8333V13.3333C5.00004 13.1123 4.91224 12.9004 4.75596 12.7441C4.59968 12.5878 4.38772 12.5 4.16671 12.5C3.94569 12.5 3.73373 12.5878 3.57745 12.7441C3.42117 12.9004 3.33337 13.1123 3.33337 13.3333V15.8333C3.33337 16.4964 3.59677 17.1323 4.06561 17.6011C4.53445 18.0699 5.17033 18.3333 5.83337 18.3333H14.1667C14.8297 18.3333 15.4656 18.0699 15.9345 17.6011C16.4033 17.1323 16.6667 16.4964 16.6667 15.8333V4.16667C16.6667 3.50363 16.4033 2.86775 15.9345 2.3989C15.4656 1.93006 14.8297 1.66667 14.1667 1.66667Z" fill="#DD524C"/>
</svg>
