<svg width="20" height="20" viewBox="0 0 20 20" fill="none" xmlns="http://www.w3.org/2000/svg">
<path d="M15 12.5V4.16666C15 3.50362 14.7366 2.86773 14.2677 2.39889C13.7989 1.93005 13.163 1.66666 12.5 1.66666H4.16663C3.50358 1.66666 2.8677 1.93005 2.39886 2.39889C1.93002 2.86773 1.66663 3.50362 1.66663 4.16666V12.5C1.66663 13.163 1.93002 13.7989 2.39886 14.2678C2.8677 14.7366 3.50358 15 4.16663 15H12.5C13.163 15 13.7989 14.7366 14.2677 14.2678C14.7366 13.7989 15 13.163 15 12.5ZM3.33329 4.16666C3.33329 3.94564 3.42109 3.73368 3.57737 3.5774C3.73365 3.42112 3.94561 3.33332 4.16663 3.33332H12.5C12.721 3.33332 12.9329 3.42112 13.0892 3.5774C13.2455 3.73368 13.3333 3.94564 13.3333 4.16666V7.79999L12.4333 6.89166C12.0333 6.49156 11.4907 6.26674 10.925 6.26666C10.3596 6.26856 9.81767 6.4931 9.41663 6.89166L8.65829 7.64999L7.98329 6.97499C7.52658 6.5256 6.91152 6.27375 6.27079 6.27375C5.63006 6.27375 5.01501 6.5256 4.55829 6.97499L3.33329 8.20832V4.16666ZM3.43329 12.875C3.36903 12.7604 3.33464 12.6314 3.33329 12.5V10.5583L5.73329 8.15832C5.80376 8.08752 5.88752 8.03134 5.97976 7.993C6.072 7.95467 6.1709 7.93493 6.27079 7.93493C6.37068 7.93493 6.46959 7.95467 6.56183 7.993C6.65407 8.03134 6.73783 8.08752 6.80829 8.15832L7.49996 8.83332L3.43329 12.875ZM10.6 8.07499C10.6411 8.0298 10.6913 7.99381 10.7473 7.9694C10.8033 7.94498 10.8639 7.93269 10.925 7.93332C10.9861 7.93269 11.0466 7.94498 11.1026 7.9694C11.1586 7.99381 11.2088 8.0298 11.25 8.07499L13.3333 10.15V12.5C13.3333 12.721 13.2455 12.933 13.0892 13.0892C12.9329 13.2455 12.721 13.3333 12.5 13.3333H5.33329L10.6 8.07499ZM17.5 4.99999C17.2789 4.99999 17.067 5.08779 16.9107 5.24407C16.7544 5.40035 16.6666 5.61231 16.6666 5.83332V14.1667C16.6666 14.8297 16.4032 15.4656 15.9344 15.9344C15.4656 16.4033 14.8297 16.6667 14.1666 16.6667H5.83329C5.61228 16.6667 5.40032 16.7545 5.24404 16.9107C5.08776 17.067 4.99996 17.279 4.99996 17.5C4.99996 17.721 5.08776 17.933 5.24404 18.0892C5.40032 18.2455 5.61228 18.3333 5.83329 18.3333H14.1666C15.2717 18.3333 16.3315 17.8943 17.1129 17.1129C17.8943 16.3315 18.3333 15.2717 18.3333 14.1667V5.83332C18.3333 5.61231 18.2455 5.40035 18.0892 5.24407C17.9329 5.08779 17.721 4.99999 17.5 4.99999Z" fill="#20293A"/>
</svg>
