<svg width="20" height="20" viewBox="0 0 20 20" fill="none" xmlns="http://www.w3.org/2000/svg">
<path d="M10.6916 11.2083C10.6154 11.0949 10.5124 11.002 10.3918 10.9377C10.2712 10.8734 10.1366 10.8398 9.99996 10.8398C9.86329 10.8398 9.72872 10.8734 9.6081 10.9377C9.48748 11.002 9.38452 11.0949 9.30829 11.2083L5.97496 16.2083C5.90182 16.335 5.86331 16.4787 5.86331 16.625C5.86331 16.7713 5.90182 16.915 5.97496 17.0417C6.04017 17.1718 6.13834 17.2826 6.25969 17.363C6.38105 17.4435 6.52135 17.4907 6.66663 17.5H13.3333C13.484 17.4996 13.6319 17.4583 13.761 17.3805C13.8901 17.3028 13.9958 17.1914 14.0666 17.0583C14.1335 16.928 14.1649 16.7824 14.1576 16.6361C14.1503 16.4898 14.1045 16.348 14.025 16.225L10.6916 11.2083ZM8.22496 15.8333L9.99996 13.1667L11.775 15.8333H8.22496ZM15.8333 2.5H4.16663C3.50358 2.5 2.8677 2.76339 2.39886 3.23223C1.93002 3.70107 1.66663 4.33696 1.66663 5V12.5C1.66663 13.163 1.93002 13.7989 2.39886 14.2678C2.8677 14.7366 3.50358 15 4.16663 15H4.87496C5.09597 15 5.30793 14.9122 5.46422 14.7559C5.6205 14.5996 5.70829 14.3877 5.70829 14.1667C5.70829 13.9457 5.6205 13.7337 5.46422 13.5774C5.30793 13.4211 5.09597 13.3333 4.87496 13.3333H4.16663C3.94561 13.3333 3.73365 13.2455 3.57737 13.0893C3.42109 12.933 3.33329 12.721 3.33329 12.5V5C3.33329 4.77899 3.42109 4.56702 3.57737 4.41074C3.73365 4.25446 3.94561 4.16667 4.16663 4.16667H15.8333C16.0543 4.16667 16.2663 4.25446 16.4225 4.41074C16.5788 4.56702 16.6666 4.77899 16.6666 5V12.5C16.6666 12.721 16.5788 12.933 16.4225 13.0893C16.2663 13.2455 16.0543 13.3333 15.8333 13.3333H15.125C14.9039 13.3333 14.692 13.4211 14.5357 13.5774C14.3794 13.7337 14.2916 13.9457 14.2916 14.1667C14.2916 14.3877 14.3794 14.5996 14.5357 14.7559C14.692 14.9122 14.9039 15 15.125 15H15.8333C16.4963 15 17.1322 14.7366 17.6011 14.2678C18.0699 13.7989 18.3333 13.163 18.3333 12.5V5C18.3333 4.33696 18.0699 3.70107 17.6011 3.23223C17.1322 2.76339 16.4963 2.5 15.8333 2.5Z" fill="#20293A"/>
</svg>
