<svg width="79" height="24" viewBox="0 0 79 24" fill="none" xmlns="http://www.w3.org/2000/svg">
<path d="M12.5 18C15.8137 18 18.5 15.3137 18.5 12C18.5 8.68629 15.8137 6 12.5 6C9.18629 6 6.5 8.68629 6.5 12C6.5 15.3137 9.18629 18 12.5 18Z" fill="#A8B4F6"/>
<path d="M12.5 2C10.5222 2 8.58879 2.58649 6.9443 3.6853C5.29981 4.78412 4.01809 6.3459 3.26121 8.17317C2.50433 10.0004 2.3063 12.0111 2.69215 13.9509C3.078 15.8907 4.03041 17.6725 5.42894 19.0711C6.82746 20.4696 8.60929 21.422 10.5491 21.8079C12.4889 22.1937 14.4996 21.9957 16.3268 21.2388C18.1541 20.4819 19.7159 19.2002 20.8147 17.5557C21.9135 15.9112 22.5 13.9778 22.5 12C22.497 9.34877 21.4424 6.80699 19.5677 4.93228C17.693 3.05758 15.1512 2.00303 12.5 2ZM12.5 18C11.3133 18 10.1533 17.6481 9.16658 16.9888C8.17989 16.3295 7.41085 15.3925 6.95673 14.2961C6.5026 13.1997 6.38378 11.9933 6.61529 10.8295C6.8468 9.66557 7.41825 8.59647 8.25736 7.75736C9.09648 6.91824 10.1656 6.3468 11.3295 6.11529C12.4933 5.88378 13.6997 6.0026 14.7961 6.45672C15.8925 6.91085 16.8295 7.67988 17.4888 8.66658C18.1481 9.65327 18.5 10.8133 18.5 12C18.4982 13.5907 17.8655 15.1158 16.7406 16.2406C15.6158 17.3655 14.0907 17.9982 12.5 18Z" fill="url(#paint0_linear_2_89)"/>
<path d="M34.3182 16.5H31.3608V7.77273H34.3778C35.2443 7.77273 35.9886 7.94744 36.6108 8.29688C37.2358 8.64347 37.7159 9.14205 38.0511 9.79261C38.3864 10.4432 38.554 11.2216 38.554 12.1278C38.554 13.0369 38.3849 13.8182 38.0469 14.4716C37.7116 15.125 37.2273 15.6264 36.5938 15.9759C35.9631 16.3253 35.2045 16.5 34.3182 16.5ZM32.9418 15.1321H34.2415C34.8494 15.1321 35.3565 15.0213 35.7628 14.7997C36.169 14.5753 36.4744 14.2415 36.679 13.7983C36.8835 13.3523 36.9858 12.7955 36.9858 12.1278C36.9858 11.4602 36.8835 10.9062 36.679 10.4659C36.4744 10.0227 36.1719 9.69176 35.7713 9.47301C35.3736 9.25142 34.8793 9.14062 34.2884 9.14062H32.9418V15.1321ZM42.8857 16.6278C42.2294 16.6278 41.6626 16.4915 41.1854 16.2188C40.7109 15.9432 40.3459 15.554 40.0902 15.0511C39.8345 14.5455 39.7067 13.9503 39.7067 13.2656C39.7067 12.5923 39.8345 12.0014 40.0902 11.4929C40.3487 10.9815 40.7095 10.5838 41.1726 10.2997C41.6357 10.0128 42.1797 9.86932 42.8047 9.86932C43.2081 9.86932 43.5888 9.93466 43.9467 10.0653C44.3075 10.1932 44.6257 10.392 44.9013 10.6619C45.1797 10.9318 45.3984 11.2756 45.5575 11.6932C45.7166 12.108 45.7962 12.6023 45.7962 13.1761V13.6491H40.4311V12.6094H44.3175C44.3146 12.3139 44.2507 12.0511 44.1257 11.821C44.0007 11.5881 43.826 11.4048 43.6016 11.2713C43.38 11.1378 43.1214 11.071 42.826 11.071C42.5107 11.071 42.2337 11.1477 41.995 11.3011C41.7564 11.4517 41.5703 11.6506 41.4368 11.8977C41.3061 12.142 41.2393 12.4105 41.2365 12.7031V13.6108C41.2365 13.9915 41.3061 14.3182 41.4453 14.5909C41.5845 14.8608 41.7791 15.0682 42.0291 15.2131C42.2791 15.3551 42.5717 15.4261 42.907 15.4261C43.1314 15.4261 43.3345 15.3949 43.5163 15.3324C43.6982 15.267 43.8558 15.1719 43.9893 15.0469C44.1229 14.9219 44.2237 14.767 44.2919 14.5824L45.7322 14.7443C45.6413 15.125 45.468 15.4574 45.2124 15.7415C44.9595 16.0227 44.6357 16.2415 44.2408 16.3977C43.8459 16.5511 43.3942 16.6278 42.8857 16.6278ZM52.7603 9.95455L50.4293 16.5H48.7248L46.3938 9.95455H48.0387L49.543 14.8168H49.6112L51.1197 9.95455H52.7603ZM53.896 16.5V7.77273H57.1687C57.8391 7.77273 58.4016 7.89773 58.8562 8.14773C59.3136 8.39773 59.6587 8.74148 59.8917 9.17898C60.1275 9.61364 60.2454 10.108 60.2454 10.6619C60.2454 11.2216 60.1275 11.7187 59.8917 12.1534C59.6559 12.5881 59.3079 12.9304 58.8477 13.1804C58.3874 13.4276 57.8207 13.5511 57.1474 13.5511H54.9783V12.2514H56.9343C57.3263 12.2514 57.6474 12.1832 57.8974 12.0469C58.1474 11.9105 58.332 11.723 58.4513 11.4844C58.5735 11.2457 58.6346 10.9716 58.6346 10.6619C58.6346 10.3523 58.5735 10.0795 58.4513 9.84375C58.332 9.60795 58.146 9.42472 57.8931 9.29403C57.6431 9.16051 57.3207 9.09375 56.9258 9.09375H55.4769V16.5H53.896ZM64.3118 16.6278C63.6726 16.6278 63.1186 16.4872 62.6499 16.206C62.1811 15.9247 61.8175 15.5312 61.5589 15.0256C61.3033 14.5199 61.1754 13.929 61.1754 13.2528C61.1754 12.5767 61.3033 11.9844 61.5589 11.4759C61.8175 10.9673 62.1811 10.5724 62.6499 10.2912C63.1186 10.0099 63.6726 9.86932 64.3118 9.86932C64.951 9.86932 65.505 10.0099 65.9737 10.2912C66.4425 10.5724 66.8047 10.9673 67.0604 11.4759C67.3189 11.9844 67.4482 12.5767 67.4482 13.2528C67.4482 13.929 67.3189 14.5199 67.0604 15.0256C66.8047 15.5312 66.4425 15.9247 65.9737 16.206C65.505 16.4872 64.951 16.6278 64.3118 16.6278ZM64.3203 15.392C64.6669 15.392 64.9567 15.2969 65.1896 15.1065C65.4226 14.9134 65.5959 14.6548 65.7095 14.331C65.826 14.0071 65.8842 13.6463 65.8842 13.2486C65.8842 12.848 65.826 12.4858 65.7095 12.1619C65.5959 11.8352 65.4226 11.5753 65.1896 11.3821C64.9567 11.1889 64.6669 11.0923 64.3203 11.0923C63.9652 11.0923 63.6697 11.1889 63.4339 11.3821C63.201 11.5753 63.0263 11.8352 62.9098 12.1619C62.7962 12.4858 62.7393 12.848 62.7393 13.2486C62.7393 13.6463 62.7962 14.0071 62.9098 14.331C63.0263 14.6548 63.201 14.9134 63.4339 15.1065C63.6697 15.2969 63.9652 15.392 64.3203 15.392ZM68.7575 16.5V9.95455H70.2532V11.0455H70.3214C70.4407 10.6676 70.6452 10.3764 70.935 10.1719C71.2276 9.96449 71.5614 9.8608 71.9364 9.8608C72.0217 9.8608 72.1168 9.86506 72.2219 9.87358C72.3299 9.87926 72.4194 9.8892 72.4904 9.90341V11.3224C72.4251 11.2997 72.3214 11.2798 72.1793 11.2628C72.0401 11.2429 71.9052 11.233 71.7745 11.233C71.4933 11.233 71.2404 11.294 71.016 11.4162C70.7944 11.5355 70.6197 11.7017 70.4918 11.9148C70.364 12.1278 70.3001 12.3736 70.3001 12.652V16.5H68.7575ZM77.1353 9.95455V11.1477H73.3725V9.95455H77.1353ZM74.3015 8.38636H75.8441V14.5312C75.8441 14.7386 75.8754 14.8977 75.9379 15.0085C76.0032 15.1165 76.0884 15.1903 76.1935 15.2301C76.2987 15.2699 76.4151 15.2898 76.543 15.2898C76.6396 15.2898 76.7276 15.2827 76.8072 15.2685C76.8896 15.2543 76.9521 15.2415 76.9947 15.2301L77.2546 16.4361C77.1722 16.4645 77.0543 16.4957 76.9009 16.5298C76.7504 16.5639 76.5657 16.5838 76.3469 16.5895C75.9606 16.6009 75.6126 16.5426 75.3029 16.4148C74.9933 16.2841 74.7475 16.0824 74.5657 15.8097C74.3867 15.5369 74.2987 15.196 74.3015 14.7869V8.38636Z" fill="#20293A"/>
<defs>
<linearGradient id="paint0_linear_2_89" x1="18.5" y1="19" x2="7" y2="4" gradientUnits="userSpaceOnUse">
<stop stop-color="#838CF1"/>
<stop offset="1" stop-color="#443BC4"/>
</linearGradient>
</defs>
</svg>
